<mxfile host="app.diagrams.net" agent="Mozilla/5.0 (X11; Linux x86_64) AppleWebKit/537.36 (KHTML, like Gecko) Chrome/136.0.0.0 Safari/537.36" version="27.2.0">
  <diagram name="Page-1" id="tldKDSetQMj4G0KivhV6">
    <mxGraphModel grid="1" page="1" gridSize="10" guides="1" tooltips="1" connect="1" arrows="1" fold="1" pageScale="1" pageWidth="850" pageHeight="1100" math="0" shadow="0">
      <root>
        <mxCell id="0" />
        <mxCell id="1" parent="0" />
        <mxCell id="54eO3ysuZf2-Csm8CH84-32" value="mount" style="rounded=0;whiteSpace=wrap;html=1;strokeColor=none;fillColor=none;fontColor=#808080;" vertex="1" parent="1">
          <mxGeometry x="340" y="280" width="80" height="10" as="geometry" />
        </mxCell>
        <mxCell id="54eO3ysuZf2-Csm8CH84-23" value="organize" style="rounded=0;whiteSpace=wrap;html=1;strokeColor=none;fillColor=none;fontColor=#808080;" vertex="1" parent="1">
          <mxGeometry x="250" y="180" width="80" height="20" as="geometry" />
        </mxCell>
        <mxCell id="54eO3ysuZf2-Csm8CH84-18" value="" style="rounded=0;whiteSpace=wrap;html=1;" vertex="1" parent="1">
          <mxGeometry x="360" y="120" width="80" height="50" as="geometry" />
        </mxCell>
        <mxCell id="54eO3ysuZf2-Csm8CH84-7" value="&lt;b&gt;Overlay&lt;/b&gt;" style="rounded=0;whiteSpace=wrap;html=1;strokeColor=none;fillColor=none;fontColor=#808080;" vertex="1" parent="1">
          <mxGeometry x="30" y="235" width="80" height="20" as="geometry" />
        </mxCell>
        <mxCell id="54eO3ysuZf2-Csm8CH84-6" value="" style="rounded=0;whiteSpace=wrap;html=1;dashed=1;fillStyle=auto;fillColor=none;" vertex="1" parent="1">
          <mxGeometry x="110" y="210" width="220" height="70" as="geometry" />
        </mxCell>
        <mxCell id="54eO3ysuZf2-Csm8CH84-1" value="" style="rounded=0;whiteSpace=wrap;html=1;" vertex="1" parent="1">
          <mxGeometry x="120" y="220" width="80" height="50" as="geometry" />
        </mxCell>
        <mxCell id="yVKAf2mZOe0JGGy7InLV-17" value="" style="rounded=0;whiteSpace=wrap;html=1;" vertex="1" parent="1">
          <mxGeometry x="150" y="420" width="140" height="50" as="geometry" />
        </mxCell>
        <mxCell id="yVKAf2mZOe0JGGy7InLV-1" value="" style="rounded=0;whiteSpace=wrap;html=1;" vertex="1" parent="1">
          <mxGeometry x="120" y="120" width="80" height="50" as="geometry" />
        </mxCell>
        <mxCell id="yVKAf2mZOe0JGGy7InLV-2" value="" style="rounded=0;whiteSpace=wrap;html=1;" vertex="1" parent="1">
          <mxGeometry x="240" y="120" width="80" height="50" as="geometry" />
        </mxCell>
        <mxCell id="yVKAf2mZOe0JGGy7InLV-3" value="" style="rounded=0;whiteSpace=wrap;html=1;" vertex="1" parent="1">
          <mxGeometry x="150" y="320" width="140" height="50" as="geometry" />
        </mxCell>
        <mxCell id="yVKAf2mZOe0JGGy7InLV-4" value="&lt;b&gt;Part 1&lt;/b&gt;" style="rounded=0;whiteSpace=wrap;html=1;strokeColor=none;fillColor=none;fontColor=#808080;" vertex="1" parent="1">
          <mxGeometry x="120" y="80" width="80" height="20" as="geometry" />
        </mxCell>
        <mxCell id="yVKAf2mZOe0JGGy7InLV-5" value="&lt;b&gt;Part 2&lt;/b&gt;" style="rounded=0;whiteSpace=wrap;html=1;strokeColor=none;fillColor=none;fontColor=#808080;" vertex="1" parent="1">
          <mxGeometry x="240" y="80" width="80" height="20" as="geometry" />
        </mxCell>
        <mxCell id="yVKAf2mZOe0JGGy7InLV-23" style="rounded=0;orthogonalLoop=1;jettySize=auto;html=1;exitX=0.5;exitY=1;exitDx=0;exitDy=0;strokeColor=#666666;endArrow=blockThin;endFill=1;edgeStyle=orthogonalEdgeStyle;curved=1;entryX=0;entryY=0.5;entryDx=0;entryDy=0;" edge="1" parent="1" source="yVKAf2mZOe0JGGy7InLV-6" target="yVKAf2mZOe0JGGy7InLV-10">
          <mxGeometry relative="1" as="geometry">
            <mxPoint x="130" y="380" as="targetPoint" />
            <Array as="points">
              <mxPoint x="100" y="150" />
              <mxPoint x="100" y="355" />
            </Array>
          </mxGeometry>
        </mxCell>
        <mxCell id="yVKAf2mZOe0JGGy7InLV-6" value="&lt;b&gt;&lt;font style=&quot;color: rgb(255, 255, 255);&quot;&gt;A&lt;/font&gt;&lt;/b&gt;" style="ellipse;whiteSpace=wrap;html=1;strokeColor=#009900;fillColor=#009900;" vertex="1" parent="1">
          <mxGeometry x="130" y="130" width="20" height="20" as="geometry" />
        </mxCell>
        <mxCell id="54eO3ysuZf2-Csm8CH84-25" style="edgeStyle=orthogonalEdgeStyle;rounded=0;orthogonalLoop=1;jettySize=auto;html=1;exitX=0.5;exitY=1;exitDx=0;exitDy=0;entryX=0;entryY=1;entryDx=0;entryDy=0;curved=1;strokeColor=#666666;dashed=1;endArrow=blockThin;endFill=1;" edge="1" parent="1" source="yVKAf2mZOe0JGGy7InLV-7" target="54eO3ysuZf2-Csm8CH84-20">
          <mxGeometry relative="1" as="geometry">
            <Array as="points">
              <mxPoint x="180" y="180" />
              <mxPoint x="408" y="180" />
            </Array>
          </mxGeometry>
        </mxCell>
        <mxCell id="yVKAf2mZOe0JGGy7InLV-7" value="&lt;b&gt;&lt;font style=&quot;color: rgb(255, 255, 255);&quot;&gt;B&lt;/font&gt;&lt;/b&gt;" style="ellipse;whiteSpace=wrap;html=1;strokeColor=#009900;fillColor=#009900;" vertex="1" parent="1">
          <mxGeometry x="170" y="140" width="20" height="20" as="geometry" />
        </mxCell>
        <mxCell id="yVKAf2mZOe0JGGy7InLV-25" style="rounded=0;orthogonalLoop=1;jettySize=auto;html=1;endArrow=blockThin;endFill=1;strokeColor=#666666;edgeStyle=orthogonalEdgeStyle;curved=1;entryX=0.5;entryY=0;entryDx=0;entryDy=0;exitX=0.117;exitY=0.65;exitDx=0;exitDy=0;exitPerimeter=0;" edge="1" parent="1" source="yVKAf2mZOe0JGGy7InLV-8" target="yVKAf2mZOe0JGGy7InLV-13">
          <mxGeometry relative="1" as="geometry">
            <Array as="points">
              <mxPoint x="230" y="143" />
            </Array>
          </mxGeometry>
        </mxCell>
        <mxCell id="yVKAf2mZOe0JGGy7InLV-8" value="&lt;b&gt;&lt;font style=&quot;color: rgb(255, 255, 255);&quot;&gt;C&lt;/font&gt;&lt;/b&gt;" style="ellipse;whiteSpace=wrap;html=1;fillColor=#0066CC;strokeColor=#0066CC;" vertex="1" parent="1">
          <mxGeometry x="250" y="130" width="20" height="20" as="geometry" />
        </mxCell>
        <mxCell id="yVKAf2mZOe0JGGy7InLV-9" value="&lt;b&gt;&lt;font style=&quot;color: rgb(255, 255, 255);&quot;&gt;D&lt;/font&gt;&lt;/b&gt;" style="ellipse;whiteSpace=wrap;html=1;strokeColor=#0066CC;fillColor=#0066CC;" vertex="1" parent="1">
          <mxGeometry x="290" y="140" width="20" height="20" as="geometry" />
        </mxCell>
        <mxCell id="yVKAf2mZOe0JGGy7InLV-27" style="rounded=0;orthogonalLoop=1;jettySize=auto;html=1;exitX=0.5;exitY=1;exitDx=0;exitDy=0;entryX=0.5;entryY=0;entryDx=0;entryDy=0;endArrow=blockThin;endFill=1;strokeColor=#666666;" edge="1" parent="1" source="yVKAf2mZOe0JGGy7InLV-10" target="yVKAf2mZOe0JGGy7InLV-18">
          <mxGeometry relative="1" as="geometry" />
        </mxCell>
        <mxCell id="yVKAf2mZOe0JGGy7InLV-10" value="&lt;b&gt;&lt;font style=&quot;color: rgb(255, 255, 255);&quot;&gt;A&lt;/font&gt;&lt;/b&gt;" style="ellipse;whiteSpace=wrap;html=1;strokeColor=#009900;fillColor=#009900;" vertex="1" parent="1">
          <mxGeometry x="160" y="345" width="20" height="20" as="geometry" />
        </mxCell>
        <mxCell id="yVKAf2mZOe0JGGy7InLV-29" style="rounded=0;orthogonalLoop=1;jettySize=auto;html=1;exitX=0.5;exitY=1;exitDx=0;exitDy=0;endArrow=blockThin;endFill=1;strokeColor=#666666;" edge="1" parent="1" source="yVKAf2mZOe0JGGy7InLV-13" target="yVKAf2mZOe0JGGy7InLV-20">
          <mxGeometry relative="1" as="geometry" />
        </mxCell>
        <mxCell id="yVKAf2mZOe0JGGy7InLV-13" value="&lt;b&gt;&lt;font style=&quot;color: rgb(255, 255, 255);&quot;&gt;C&lt;/font&gt;&lt;/b&gt;" style="ellipse;whiteSpace=wrap;html=1;fillColor=#0066CC;strokeColor=#0066CC;" vertex="1" parent="1">
          <mxGeometry x="220" y="340" width="20" height="20" as="geometry" />
        </mxCell>
        <mxCell id="yVKAf2mZOe0JGGy7InLV-15" value="&lt;b&gt;Build&lt;/b&gt;" style="rounded=0;whiteSpace=wrap;html=1;strokeColor=none;fillColor=none;fontColor=#808080;" vertex="1" parent="1">
          <mxGeometry x="30" y="135" width="80" height="20" as="geometry" />
        </mxCell>
        <mxCell id="yVKAf2mZOe0JGGy7InLV-16" value="&lt;b&gt;Stage&lt;/b&gt;" style="rounded=0;whiteSpace=wrap;html=1;strokeColor=none;fillColor=none;fontColor=#808080;" vertex="1" parent="1">
          <mxGeometry x="30" y="332" width="80" height="20" as="geometry" />
        </mxCell>
        <mxCell id="yVKAf2mZOe0JGGy7InLV-18" value="&lt;b&gt;&lt;font style=&quot;color: rgb(255, 255, 255);&quot;&gt;A&lt;/font&gt;&lt;/b&gt;" style="ellipse;whiteSpace=wrap;html=1;strokeColor=#009900;fillColor=#009900;" vertex="1" parent="1">
          <mxGeometry x="160" y="445" width="20" height="20" as="geometry" />
        </mxCell>
        <mxCell id="yVKAf2mZOe0JGGy7InLV-20" value="&lt;b&gt;&lt;font style=&quot;color: rgb(255, 255, 255);&quot;&gt;C&lt;/font&gt;&lt;/b&gt;" style="ellipse;whiteSpace=wrap;html=1;fillColor=#0066CC;strokeColor=#0066CC;" vertex="1" parent="1">
          <mxGeometry x="220" y="425" width="20" height="20" as="geometry" />
        </mxCell>
        <mxCell id="yVKAf2mZOe0JGGy7InLV-22" value="&lt;b&gt;Prime&lt;/b&gt;" style="rounded=0;whiteSpace=wrap;html=1;strokeColor=none;fillColor=none;fontColor=#808080;" vertex="1" parent="1">
          <mxGeometry x="30" y="435" width="80" height="20" as="geometry" />
        </mxCell>
        <mxCell id="yVKAf2mZOe0JGGy7InLV-30" value="Stage migration" style="rounded=0;whiteSpace=wrap;html=1;strokeColor=none;fillColor=none;fontColor=#808080;" vertex="1" parent="1">
          <mxGeometry x="440" y="280" width="100" height="20" as="geometry" />
        </mxCell>
        <mxCell id="yVKAf2mZOe0JGGy7InLV-31" value="Prime migration" style="rounded=0;whiteSpace=wrap;html=1;strokeColor=none;fillColor=none;fontColor=#808080;" vertex="1" parent="1">
          <mxGeometry x="440" y="390" width="100" height="20" as="geometry" />
        </mxCell>
        <mxCell id="izR9H2TS-rFpTbOR_gzO-15" style="rounded=0;orthogonalLoop=1;jettySize=auto;html=1;entryX=1;entryY=0.5;entryDx=0;entryDy=0;strokeColor=#666666;endArrow=blockThin;endFill=1;exitX=0.5;exitY=1;exitDx=0;exitDy=0;edgeStyle=orthogonalEdgeStyle;curved=1;" edge="1" parent="1" source="yVKAf2mZOe0JGGy7InLV-9" target="izR9H2TS-rFpTbOR_gzO-12">
          <mxGeometry relative="1" as="geometry">
            <mxPoint x="270" y="170" as="sourcePoint" />
            <Array as="points">
              <mxPoint x="340" y="160" />
              <mxPoint x="340" y="340" />
            </Array>
          </mxGeometry>
        </mxCell>
        <mxCell id="izR9H2TS-rFpTbOR_gzO-12" value="&lt;b&gt;&lt;font style=&quot;color: rgb(255, 255, 255);&quot;&gt;D&lt;/font&gt;&lt;/b&gt;" style="ellipse;whiteSpace=wrap;html=1;strokeColor=#0066CC;fillColor=#0066CC;" vertex="1" parent="1">
          <mxGeometry x="260" y="330" width="20" height="20" as="geometry" />
        </mxCell>
        <mxCell id="54eO3ysuZf2-Csm8CH84-15" style="rounded=0;orthogonalLoop=1;jettySize=auto;html=1;exitX=0.5;exitY=1;exitDx=0;exitDy=0;strokeColor=#666666;endArrow=blockThin;endFill=1;entryX=0.5;entryY=0;entryDx=0;entryDy=0;" edge="1" parent="1" target="54eO3ysuZf2-Csm8CH84-37">
          <mxGeometry relative="1" as="geometry">
            <mxPoint x="140" y="260" as="sourcePoint" />
            <mxPoint x="193.9999999999933" y="331.9999999999909" as="targetPoint" />
          </mxGeometry>
        </mxCell>
        <mxCell id="54eO3ysuZf2-Csm8CH84-4" value="" style="rounded=0;whiteSpace=wrap;html=1;" vertex="1" parent="1">
          <mxGeometry x="240" y="220" width="80" height="50" as="geometry" />
        </mxCell>
        <mxCell id="54eO3ysuZf2-Csm8CH84-17" style="edgeStyle=orthogonalEdgeStyle;rounded=0;orthogonalLoop=1;jettySize=auto;html=1;exitX=0.5;exitY=1;exitDx=0;exitDy=0;strokeColor=#666666;endArrow=blockThin;endFill=1;entryX=0.5;entryY=0;entryDx=0;entryDy=0;" edge="1" parent="1" target="54eO3ysuZf2-Csm8CH84-38">
          <mxGeometry relative="1" as="geometry">
            <mxPoint x="200" y="350" as="sourcePoint" />
            <mxPoint x="200" y="425" as="targetPoint" />
          </mxGeometry>
        </mxCell>
        <mxCell id="54eO3ysuZf2-Csm8CH84-19" value="&lt;b&gt;Partition&lt;/b&gt;" style="rounded=0;whiteSpace=wrap;html=1;strokeColor=none;fillColor=none;fontColor=#808080;" vertex="1" parent="1">
          <mxGeometry x="360" y="60" width="80" height="20" as="geometry" />
        </mxCell>
        <mxCell id="54eO3ysuZf2-Csm8CH84-20" value="&lt;b&gt;&lt;font style=&quot;color: rgb(255, 255, 255);&quot;&gt;B&lt;/font&gt;&lt;/b&gt;" style="ellipse;whiteSpace=wrap;html=1;strokeColor=#009900;fillColor=#009900;" vertex="1" parent="1">
          <mxGeometry x="405" y="135" width="20" height="20" as="geometry" />
        </mxCell>
        <mxCell id="54eO3ysuZf2-Csm8CH84-24" value="" style="rounded=0;whiteSpace=wrap;html=1;" vertex="1" parent="1">
          <mxGeometry x="360" y="320" width="80" height="50" as="geometry" />
        </mxCell>
        <mxCell id="54eO3ysuZf2-Csm8CH84-26" value="" style="rounded=0;whiteSpace=wrap;html=1;" vertex="1" parent="1">
          <mxGeometry x="360" y="420" width="80" height="50" as="geometry" />
        </mxCell>
        <mxCell id="yVKAf2mZOe0JGGy7InLV-28" style="rounded=0;orthogonalLoop=1;jettySize=auto;html=1;exitX=0.5;exitY=1;exitDx=0;exitDy=0;entryX=0.5;entryY=0;entryDx=0;entryDy=0;endArrow=blockThin;endFill=1;strokeColor=#666666;" edge="1" parent="1" source="yVKAf2mZOe0JGGy7InLV-11" target="yVKAf2mZOe0JGGy7InLV-19">
          <mxGeometry relative="1" as="geometry" />
        </mxCell>
        <mxCell id="yVKAf2mZOe0JGGy7InLV-11" value="&lt;b&gt;&lt;font style=&quot;color: rgb(255, 255, 255);&quot;&gt;B&lt;/font&gt;&lt;/b&gt;" style="ellipse;whiteSpace=wrap;html=1;strokeColor=#009900;fillColor=#009900;" vertex="1" parent="1">
          <mxGeometry x="405" y="330" width="20" height="20" as="geometry" />
        </mxCell>
        <mxCell id="yVKAf2mZOe0JGGy7InLV-19" value="&lt;b&gt;&lt;font style=&quot;color: rgb(255, 255, 255);&quot;&gt;B&lt;/font&gt;&lt;/b&gt;" style="ellipse;whiteSpace=wrap;html=1;strokeColor=#009900;fillColor=#009900;" vertex="1" parent="1">
          <mxGeometry x="405" y="435" width="20" height="20" as="geometry" />
        </mxCell>
        <mxCell id="54eO3ysuZf2-Csm8CH84-30" style="edgeStyle=orthogonalEdgeStyle;rounded=0;orthogonalLoop=1;jettySize=auto;html=1;exitX=0.5;exitY=1;exitDx=0;exitDy=0;strokeColor=#666666;endArrow=blockThin;endFill=1;" edge="1" parent="1" source="54eO3ysuZf2-Csm8CH84-20" target="yVKAf2mZOe0JGGy7InLV-11">
          <mxGeometry relative="1" as="geometry" />
        </mxCell>
        <mxCell id="54eO3ysuZf2-Csm8CH84-14" style="rounded=0;orthogonalLoop=1;jettySize=auto;html=1;exitX=0.5;exitY=1;exitDx=0;exitDy=0;endArrow=blockThin;endFill=1;strokeColor=#666666;" edge="1" parent="1">
          <mxGeometry relative="1" as="geometry">
            <mxPoint x="380" y="360" as="sourcePoint" />
            <mxPoint x="380" y="430" as="targetPoint" />
          </mxGeometry>
        </mxCell>
        <mxCell id="54eO3ysuZf2-Csm8CH84-31" style="edgeStyle=orthogonalEdgeStyle;rounded=0;orthogonalLoop=1;jettySize=auto;html=1;exitX=0.5;exitY=1;exitDx=0;exitDy=0;endArrow=blockThin;endFill=1;strokeWidth=2;dashed=1;dashPattern=1 1;strokeColor=#FF0000;entryX=0.5;entryY=0;entryDx=0;entryDy=0;" edge="1" parent="1" source="54eO3ysuZf2-Csm8CH84-40" target="54eO3ysuZf2-Csm8CH84-41">
          <mxGeometry relative="1" as="geometry">
            <mxPoint x="280" y="258" as="sourcePoint" />
            <mxPoint x="380" y="340" as="targetPoint" />
            <Array as="points">
              <mxPoint x="280" y="293" />
              <mxPoint x="380" y="293" />
            </Array>
          </mxGeometry>
        </mxCell>
        <mxCell id="54eO3ysuZf2-Csm8CH84-34" value="&lt;b&gt;E&lt;/b&gt;" style="whiteSpace=wrap;html=1;aspect=fixed;strokeColor=#009900;fillColor=#009900;fontColor=#FFFFFF;" vertex="1" parent="1">
          <mxGeometry x="130" y="240" width="20" height="20" as="geometry" />
        </mxCell>
        <mxCell id="54eO3ysuZf2-Csm8CH84-37" value="&lt;b&gt;E&lt;/b&gt;" style="whiteSpace=wrap;html=1;aspect=fixed;strokeColor=#009900;fillColor=#009900;fontColor=#FFFFFF;" vertex="1" parent="1">
          <mxGeometry x="190" y="330" width="20" height="20" as="geometry" />
        </mxCell>
        <mxCell id="54eO3ysuZf2-Csm8CH84-38" value="&lt;b&gt;E&lt;/b&gt;" style="whiteSpace=wrap;html=1;aspect=fixed;strokeColor=#009900;fillColor=#009900;fontColor=#FFFFFF;" vertex="1" parent="1">
          <mxGeometry x="190" y="430" width="20" height="20" as="geometry" />
        </mxCell>
        <mxCell id="54eO3ysuZf2-Csm8CH84-39" value="&lt;b&gt;F&lt;/b&gt;" style="whiteSpace=wrap;html=1;aspect=fixed;strokeColor=#009900;fillColor=#009900;fontColor=#FFFFFF;" vertex="1" parent="1">
          <mxGeometry x="170" y="235" width="20" height="20" as="geometry" />
        </mxCell>
        <mxCell id="54eO3ysuZf2-Csm8CH84-40" value="&lt;b&gt;G&lt;/b&gt;" style="whiteSpace=wrap;html=1;aspect=fixed;strokeColor=#0066CC;fillColor=#0066CC;fontColor=#FFFFFF;" vertex="1" parent="1">
          <mxGeometry x="270" y="235" width="20" height="20" as="geometry" />
        </mxCell>
        <mxCell id="54eO3ysuZf2-Csm8CH84-41" value="&lt;b&gt;G&lt;/b&gt;" style="whiteSpace=wrap;html=1;aspect=fixed;strokeColor=#0066CC;fillColor=#0066CC;fontColor=#FFFFFF;" vertex="1" parent="1">
          <mxGeometry x="370" y="340" width="20" height="20" as="geometry" />
        </mxCell>
        <mxCell id="54eO3ysuZf2-Csm8CH84-43" value="&lt;b&gt;G&lt;/b&gt;" style="whiteSpace=wrap;html=1;aspect=fixed;strokeColor=#0066CC;fillColor=#0066CC;fontColor=#FFFFFF;" vertex="1" parent="1">
          <mxGeometry x="370" y="430" width="20" height="20" as="geometry" />
        </mxCell>
        <mxCell id="WySjOEtpM5nu-wm4joFP-8" value="" style="ellipse;whiteSpace=wrap;html=1;strokeColor=#FF0000;fillColor=none;" vertex="1" parent="1">
          <mxGeometry x="90" y="300" width="40" height="10" as="geometry" />
        </mxCell>
        <mxCell id="WySjOEtpM5nu-wm4joFP-9" value="" style="ellipse;whiteSpace=wrap;html=1;strokeColor=#FF0000;fillColor=none;" vertex="1" parent="1">
          <mxGeometry x="150" y="292" width="40" height="10" as="geometry" />
        </mxCell>
        <mxCell id="WySjOEtpM5nu-wm4joFP-10" value="" style="ellipse;whiteSpace=wrap;html=1;strokeColor=#FF0000;fillColor=none;" vertex="1" parent="1">
          <mxGeometry x="220" y="302" width="120" height="10" as="geometry" />
        </mxCell>
        <mxCell id="WySjOEtpM5nu-wm4joFP-11" value="" style="ellipse;whiteSpace=wrap;html=1;strokeColor=#FF0000;fillColor=none;" vertex="1" parent="1">
          <mxGeometry x="395" y="236" width="40" height="10" as="geometry" />
        </mxCell>
        <mxCell id="WySjOEtpM5nu-wm4joFP-12" value="" style="ellipse;whiteSpace=wrap;html=1;strokeColor=#FF0000;fillColor=none;" vertex="1" parent="1">
          <mxGeometry x="360" y="300" width="40" height="10" as="geometry" />
        </mxCell>
        <mxCell id="gRKYCT2rWPe8cLQdhy5N-2" value="&lt;b&gt;Part 1&lt;/b&gt;" style="rounded=0;whiteSpace=wrap;html=1;strokeColor=none;fillColor=none;fontColor=#808080;" vertex="1" parent="1">
          <mxGeometry x="360" y="80" width="80" height="20" as="geometry" />
        </mxCell>
      </root>
    </mxGraphModel>
  </diagram>
</mxfile>
